<svg xmlns="http://www.w3.org/2000/svg" viewBox="0 0 96 96" id="tooth-fairy"><g><path fill="#fce2a3" d="M23 80.92a13.53 13.53 0 0 1-11.2-21.07 17.75 17.75 0 1 1 24.7-16.34v23.9A13.52 13.52 0 0 1 23 80.92Z"></path><path fill="#fcb58a" d="M23 74.92a7.52 7.52 0 0 1-6.23-11.71l4.08-6-6.69-2.86A11.75 11.75 0 1 1 30.5 43.51v23.9a7.52 7.52 0 0 1-7.5 7.51Z"></path><path fill="#fcfbdf" d="M5.79 31.41A3 3 0 0 0 7 36.29a2.92 2.92 0 0 0 3.1-.75 11.73 11.73 0 0 1 20.4 7.92l.17-.11a2.07 2.07 0 0 1 .59-.78 24.36 24.36 0 0 1 4-2.81 2.33 2.33 0 0 1 .47-1.3 17.74 17.74 0 0 0-29.94-7.05Z"></path><path fill="#fcb07b" d="m30.11 34.1-.31.24a2.85 2.85 0 0 0-.7 3.66 11.73 11.73 0 0 1 1.4 5.56v23.58a7.7 7.7 0 0 1-7.1 7.77 7.53 7.53 0 0 1-6.82-3.59 3 3 0 0 0-3-1.47 3 3 0 0 0-2.18 4.53 13.53 13.53 0 0 0 12 6.53A13.78 13.78 0 0 0 36.5 67V43.52A17.69 17.69 0 0 0 34.31 35a2.82 2.82 0 0 0-4.2-.9Z"></path><path fill="#fc7e67" d="M23 69.92A2.51 2.51 0 0 1 20.9 66l4.6-6.8v8.19a2.52 2.52 0 0 1-2.5 2.53Zm-6.89-20.18a6.76 6.76 0 1 1 9.39-6.23v10.24Z"></path><path fill="#fce2a3" d="M73 80.92a13.52 13.52 0 0 1-13.5-13.51v-23.9a17.76 17.76 0 1 1 24.71 16.34A13.53 13.53 0 0 1 73 80.92Z"></path><path fill="#fcfbdf" d="M90.21 31.41A3 3 0 0 1 89 36.29a2.92 2.92 0 0 1-3.1-.75 11.73 11.73 0 0 0-20.4 7.92l-.17-.11a2.07 2.07 0 0 0-.59-.78 24 24 0 0 0-4-2.81 2.33 2.33 0 0 0-.47-1.3 17.74 17.74 0 0 1 29.94-7.05Z"></path><path fill="#fcb07b" d="m65.89 34.1.31.24a2.85 2.85 0 0 1 .7 3.66 11.73 11.73 0 0 0-1.4 5.56v23.58a7.7 7.7 0 0 0 7.1 7.77 7.52 7.52 0 0 0 6.82-3.59 3 3 0 0 1 3-1.47 3 3 0 0 1 2.18 4.53 13.53 13.53 0 0 1-12 6.53A13.78 13.78 0 0 1 59.5 67V43.52A17.69 17.69 0 0 1 61.69 35a2.82 2.82 0 0 1 4.2-.9Z"></path><path fill="#fcb58a" d="M73 74.92a7.52 7.52 0 0 1-7.51-7.51v-23.9a11.76 11.76 0 1 1 16.36 10.82l-6.69 2.86 4.08 6A7.52 7.52 0 0 1 73 74.92Z"></path><path fill="#fc7e67" d="M73 69.92a2.52 2.52 0 0 1-2.51-2.51v-8.19L75.1 66a2.51 2.51 0 0 1-2.1 3.92Zm-2.5-26.41a6.76 6.76 0 1 1 9.39 6.23l-9.39 4Z"></path><path fill="#dbe9ee" d="M68.69 58.05c-4 4.71-5.46 10.61-6.25 16.7l-.86 4.09a4.36 4.36 0 0 1-8.67-.23l-.85-8.71a4.07 4.07 0 0 0-8.12 0l-.86 8.87a4.19 4.19 0 0 1-8.34.22l-1.18-6.5c-.73-5.64-3.88-10.84-7.08-15.54A13.85 13.85 0 0 1 48 39.63c7.58-8 21.17-4.39 23.54 6.36a13.85 13.85 0 0 1-2.85 12.06Z"></path><path fill="#a4c6ee" d="M71.54 46a13.71 13.71 0 0 0-14.46-10.63 1.44 1.44 0 0 0-1 2.35 1.49 1.49 0 0 0 1.34.63 10.73 10.73 0 0 1 11.17 8.31 10.94 10.94 0 0 1-2.22 9.47c-5.79 6.87-6.15 14.59-7.75 22.21a1.36 1.36 0 0 1-2.72 0c-.92-9.54-.86-9.08-1-9.69a7.88 7.88 0 0 0-4.62-1.84 4 4 0 0 1 1.77 3l.85 8.71a4.36 4.36 0 0 0 8.67.23l.86-4.09c.79-6.09 2.29-12 6.25-16.69A13.88 13.88 0 0 0 71.54 46Z"></path><path fill="#fff" d="M58 56.29a3.7 3.7 0 0 0 5.85-.19c.32-.43.65-.84 1-1.26a8.85 8.85 0 0 0-13.23-11.75 2.25 2.25 0 0 0-.41 2.48c1.66 3.78 3.12 6.16 6.79 10.72zM41.09 50.5a10.47 10.47 0 0 0 4.68 8.78 1.71 1.71 0 0 0 1.17.33 10.38 10.38 0 0 0 2.27-.45 1.77 1.77 0 0 0 .89-2.71c-1.61-2.29-3.3-4.73-4.74-7.25a1.75 1.75 0 0 0-2.13-.77c-.3.11-.59.22-.89.31a1.79 1.79 0 0 0-1.25 1.76z"></path><path fill="#a4c6ee" d="M39.48 57a50.51 50.51 0 0 1 5.72 10.25 4.08 4.08 0 0 0-1.26 2.65l-.86 8.87a4.19 4.19 0 0 1-8.34.23l-1.18-6.5c-.73-5.64-3.88-10.85-7.08-15.54a13.85 13.85 0 0 1 18-20 13.86 13.86 0 0 0-5 20.04Z"></path><path fill="#86a3da" d="M41.58 75.54a1.47 1.47 0 0 0-1.33 1.33l-.16 1.61a1.21 1.21 0 0 1-1.19 1.17 1.19 1.19 0 0 1-1.18-1c-1.81-9.06-1-12-8.76-23.34a10.86 10.86 0 0 1 9-16.94 10.72 10.72 0 0 1 7 2.59v.6a16.68 16.68 0 0 0 2.65-2.22A13.84 13.84 0 0 0 26.48 57c3.2 4.69 6.35 9.9 7.08 15.54L34.74 79a4.19 4.19 0 0 0 8.34-.23l.16-1.62a1.48 1.48 0 0 0-1.66-1.61Z"></path><path fill="#fcbf49" d="M55.91 19.55v6.8a4.28 4.28 0 0 1-3.69 4.26 32.46 32.46 0 0 1-8.47 0 4.27 4.27 0 0 1-3.67-4.26v-6.8a.5.5 0 0 1 .85-.37L44 22.12a.49.49 0 0 0 .82-.21l2.66-8.2a.51.51 0 0 1 1 0l2.65 8.2a.5.5 0 0 0 .83.21l3.09-2.94a.51.51 0 0 1 .86.37Z"></path><path fill="#fc8349" d="M55.91 23.27v3.08a4.28 4.28 0 0 1-3.69 4.26 32.45 32.45 0 0 1-8.47 0 4.28 4.28 0 0 1-3.67-4.26v-3.09a4.27 4.27 0 0 0 3.67 4.26 32.87 32.87 0 0 0 8.47 0 4.28 4.28 0 0 0 3.69-4.25Z"></path><path fill="#fce280" d="M55.91 19.55v3.08a.51.51 0 0 0-.86-.36L52 25.21a.51.51 0 0 1-.83-.22l-2.65-8.2a.51.51 0 0 0-1 0L44.85 25a.5.5 0 0 1-.82.22l-3.1-2.94a.5.5 0 0 0-.85.36v-3.09a.5.5 0 0 1 .85-.37L44 22.12a.49.49 0 0 0 .82-.21l2.66-8.21a.51.51 0 0 1 1 0l2.65 8.21a.5.5 0 0 0 .83.21l3.09-2.94a.51.51 0 0 1 .86.37Z"></path><path fill="#302d3d" d="M96 43.52a18.74 18.74 0 0 0-35.23-8.93A14.89 14.89 0 0 0 48 38.25a14.85 14.85 0 0 0-12.78-3.66 18.75 18.75 0 1 0-24.87 25.69 14.49 14.49 0 0 0 23.09 17.15l.31 1.69a5.19 5.19 0 0 0 10.32-.26l.86-8.86a3.08 3.08 0 0 1 6.14 0l.84 8.69a5.36 5.36 0 0 0 10.65.36l.28-1.32a14.5 14.5 0 0 0 22.81-17.45A18.73 18.73 0 0 0 96 43.52Zm-73 36.4a12.52 12.52 0 0 1-10.38-19.51 1 1 0 0 0-.44-1.48 16.75 16.75 0 1 1 21-23.84 16.1 16.1 0 0 0-3.6 1.79 12.75 12.75 0 1 0-15.82 18.38l5.57 2.37-3.4 5a8.51 8.51 0 1 0 15.53 5.52A33.31 33.31 0 0 1 33 74.93a12.51 12.51 0 0 1-10 4.99Zm-1.77-23.65-6.69-2.85A10.76 10.76 0 1 1 28 38.12a14.87 14.87 0 0 0-2.38 19.4 58.76 58.76 0 0 1 3.84 6.25v3.64a6.51 6.51 0 1 1-11.91-3.63l4.08-6a1 1 0 0 0-.4-1.51Zm39.36 22.44a3.36 3.36 0 0 1-6.68-.2c-.94-9.64-.83-9.11-1.15-10 2.52 1.64 2 3 3.21 3a1 1 0 0 0 .89-1.46c-3.28-6.42-13.88-6.66-17.52-.36a1 1 0 1 0 1.73 1 6.54 6.54 0 0 1 2.17-2.21c-.33.91-.22.51-1.16 10.17a3.19 3.19 0 0 1-6.35.13c-1.4-7.68-1.49-9.95-3.82-14.75-3.52-7.23-6.39-8.42-6.76-14.06a12.82 12.82 0 0 1 18.31-12.39 12.83 12.83 0 0 1-3.35.94 1 1 0 0 0 .27 2 14.41 14.41 0 0 0 5.11-1.7c.36.27.71.55 1 .85a12.9 12.9 0 0 1-6.85 3.19 1 1 0 0 0-.81 1.14 1 1 0 0 0 1.13.86 15.11 15.11 0 0 0 8.77-4.48 12.73 12.73 0 0 1 12.35-3.66c9.32 2.13 12.85 13.55 6.84 20.73a24.62 24.62 0 0 0-3.86 6.5c-2 4.91-2.35 9.48-2.78 11.47a26.62 26.62 0 0 1-.69 3.29Zm13.74-21 4.08 6a6.51 6.51 0 1 1-11.91 3.7v-4.07c2-4.3 3.48-4.52 5.07-8.07A14.91 14.91 0 0 0 68 38.08a10.75 10.75 0 1 1 13.46 15.34l-6.69 2.85a1 1 0 0 0-.44 1.48Zm9.49 1.18a1 1 0 0 0-.44 1.48 12.51 12.51 0 0 1-20 14.93 66.06 66.06 0 0 1 1.26-6.7 8.51 8.51 0 1 0 15.47-6l-3.4-5 5.57-2.37a12.76 12.76 0 1 0-15.89-18.38 14.36 14.36 0 0 0-3.61-1.77 16.75 16.75 0 1 1 21 23.85Z"></path><path fill="#302d3d" d="M30 44.58a1 1 0 1 0-1.79-.88 12.49 12.49 0 0 0 .25 11.4 1 1 0 0 0 .88.53 1 1 0 0 0 .88-1.48 10.48 10.48 0 0 1-.22-9.57zM43.62 31.6a33.57 33.57 0 0 0 8.73 0 5.28 5.28 0 0 0 4.56-5.25v-6.8a1.51 1.51 0 0 0-2.55-1.09l-2.52 2.39-2.41-7.45a1.51 1.51 0 0 0-2.87 0l-2.42 7.46-2.52-2.41a1.51 1.51 0 0 0-2.54 1.1v6.79a5.3 5.3 0 0 0 4.54 5.26zm-2.54-10.9 2.25 2.15a1.5 1.5 0 0 0 2.47-.63l2.2-6.76 2.19 6.75a1.51 1.51 0 0 0 2.47.64l2.26-2.15v5.65a3.28 3.28 0 0 1-2.82 3.27 31.78 31.78 0 0 1-8.21 0 3.27 3.27 0 0 1-2.8-3.27z"></path></g></svg>